<?xml version="1.0" encoding="UTF-8" standalone="no"?>
<!-- Created with Inkscape (http://www.inkscape.org/) -->

<svg
   xmlns:dc="http://purl.org/dc/elements/1.1/"
   xmlns:cc="http://creativecommons.org/ns#"
   xmlns:rdf="http://www.w3.org/1999/02/22-rdf-syntax-ns#"
   xmlns:svg="http://www.w3.org/2000/svg"
   xmlns="http://www.w3.org/2000/svg"
   xmlns:sodipodi="http://sodipodi.sourceforge.net/DTD/sodipodi-0.dtd"
   xmlns:inkscape="http://www.inkscape.org/namespaces/inkscape"
   version="1.1"
   id="svg2"
   xml:space="preserve"
   width="162.23804"
   height="32.71719"
   viewBox="0 0 162.23804 32.71719"
   sodipodi:docname="Logo_RheosAFM.svg"
   inkscape:version="0.92.3 (2405546, 2018-03-11)"><metadata
     id="metadata8"><rdf:RDF><cc:Work
         rdf:about=""><dc:format>image/svg+xml</dc:format><dc:type
           rdf:resource="http://purl.org/dc/dcmitype/StillImage" /><dc:title></dc:title></cc:Work></rdf:RDF></metadata><defs
     id="defs6" /><sodipodi:namedview
     pagecolor="#ffffff"
     bordercolor="#666666"
     borderopacity="1"
     objecttolerance="10"
     gridtolerance="10"
     guidetolerance="10"
     inkscape:pageopacity="0"
     inkscape:pageshadow="2"
     inkscape:window-width="1853"
     inkscape:window-height="1025"
     id="namedview4"
     showgrid="false"
     inkscape:zoom="4.5118889"
     inkscape:cx="106.44441"
     inkscape:cy="16.358595"
     inkscape:window-x="67"
     inkscape:window-y="27"
     inkscape:window-maximized="1"
     inkscape:current-layer="g10" /><g
     id="g10"
     inkscape:groupmode="layer"
     inkscape:label="Logo_v2"
     transform="matrix(1.3333333,0,0,1.3333333,0,1.1512631e-6)"><g
       id="g18"
       style="fill:#010002;fill-opacity:1"><path
         inkscape:connector-curvature="0"
         id="path20"
         style="fill:#010002;stroke:#010000;stroke-width:0.85039401;stroke-linecap:round;stroke-linejoin:round;stroke-miterlimit:4;stroke-dasharray:none;stroke-opacity:1;fill-opacity:1"
         d="M 0.426,23.723 V 0.816 h 11.797 c 2.187,0 3.859,0.188 5.015,0.563 1.157,0.375 2.086,1.074 2.797,2.094 0.707,1.011 1.063,2.246 1.063,3.703 0,1.273 -0.274,2.371 -0.813,3.297 -0.543,0.918 -1.289,1.664 -2.234,2.234 -0.606,0.367 -1.434,0.668 -2.485,0.906 0.844,0.282 1.457,0.563 1.844,0.844 0.258,0.188 0.633,0.59 1.125,1.203 0.5,0.617 0.832,1.09 1,1.422 l 3.422,6.641 h -8 l -3.781,-7 C 10.695,15.816 10.27,15.23 9.895,14.957 9.383,14.605 8.805,14.426 8.16,14.426 H 7.535 v 9.297 z M 7.535,10.098 h 2.985 c 0.32,0 0.945,-0.102 1.875,-0.313 0.468,-0.094 0.847,-0.332 1.14,-0.719 C 13.836,8.684 13.988,8.238 13.988,7.738 13.988,7 13.754,6.434 13.285,6.035 12.816,5.641 11.934,5.441 10.645,5.441 h -3.11 z" /></g><g
       id="g26"
       style="fill:#010002;fill-opacity:1"><path
         inkscape:connector-curvature="0"
         id="path28"
         style="fill:#010002;stroke:#010000;stroke-width:0.85039401;stroke-linecap:round;stroke-linejoin:round;stroke-miterlimit:4;stroke-dasharray:none;stroke-opacity:1;fill-opacity:1"
         d="m 25.238,0.816 h 7.078 v 8.016 h 7.735 V 0.816 h 7.109 v 22.907 h -7.109 v -9.266 h -7.735 v 9.266 h -7.078 z" /></g><g
       id="g34"
       style="fill:#010002;fill-opacity:1"><path
         inkscape:connector-curvature="0"
         id="path36"
         style="fill:#010002;stroke:#010000;stroke-width:0.85039401;stroke-linecap:round;stroke-linejoin:round;stroke-miterlimit:4;stroke-dasharray:none;stroke-opacity:1;fill-opacity:1"
         d="M 51.879,0.816 H 70.848 V 5.707 H 58.973 V 9.348 H 69.988 V 14.02 H 58.973 v 4.515 h 12.218 v 5.188 H 51.879 Z" /></g><g
       id="g42"
       style="fill:#010002;fill-opacity:1"><path
         inkscape:connector-curvature="0"
         id="path44"
         style="fill:#010002;stroke:#010000;stroke-width:0.85039401;stroke-linecap:round;stroke-linejoin:round;stroke-miterlimit:4;stroke-dasharray:none;stroke-opacity:1;fill-opacity:1"
         d="m 74.129,12.285 c 0,-3.738 1.039,-6.648 3.125,-8.734 2.082,-2.082 4.984,-3.125 8.703,-3.125 3.813,0 6.75,1.027 8.813,3.078 2.062,2.043 3.093,4.906 3.093,8.594 0,2.679 -0.453,4.875 -1.359,6.593 -0.899,1.711 -2.199,3.043 -3.906,4 -1.7,0.95 -3.821,1.422 -6.36,1.422 -2.586,0 -4.726,-0.41 -6.422,-1.234 -1.687,-0.82 -3.058,-2.125 -4.109,-3.906 -1.055,-1.782 -1.578,-4.008 -1.578,-6.688 z m 7.078,0.031 c 0,2.313 0.426,3.977 1.281,4.985 0.864,1.012 2.035,1.515 3.516,1.515 1.519,0 2.695,-0.492 3.531,-1.484 0.832,-0.988 1.25,-2.766 1.25,-5.328 0,-2.156 -0.437,-3.727 -1.312,-4.719 -0.868,-1 -2.043,-1.5 -3.532,-1.5 -1.429,0 -2.574,0.508 -3.437,1.516 -0.867,1.012 -1.297,2.683 -1.297,5.015 z" /></g><g
       id="g50"
       style="fill:#010002;fill-opacity:1"><path
         inkscape:connector-curvature="0"
         id="path52"
         style="fill:#010002;stroke:#010000;stroke-width:0.85039401;stroke-linecap:round;stroke-linejoin:round;stroke-miterlimit:4;stroke-dasharray:none;stroke-opacity:1;fill-opacity:1"
         d="m 100.473,16.145 6.734,-0.422 c 0.145,1.093 0.441,1.929 0.891,2.5 0.726,0.929 1.769,1.39 3.125,1.39 1.007,0 1.785,-0.234 2.328,-0.703 0.551,-0.476 0.828,-1.031 0.828,-1.656 0,-0.594 -0.262,-1.125 -0.781,-1.594 -0.524,-0.469 -1.731,-0.91 -3.625,-1.328 -3.106,-0.695 -5.321,-1.625 -6.641,-2.781 -1.336,-1.156 -2,-2.629 -2,-4.422 0,-1.176 0.336,-2.285 1.016,-3.328 0.687,-1.051 1.711,-1.875 3.078,-2.469 1.375,-0.602 3.254,-0.906 5.64,-0.906 2.926,0 5.157,0.547 6.688,1.64 1.539,1.086 2.457,2.813 2.75,5.188 l -6.672,0.391 c -0.18,-1.032 -0.555,-1.782 -1.125,-2.25 -0.562,-0.469 -1.344,-0.704 -2.344,-0.704 -0.824,0 -1.445,0.18 -1.859,0.532 -0.418,0.343 -0.625,0.765 -0.625,1.265 0,0.367 0.172,0.696 0.516,0.985 0.332,0.304 1.125,0.586 2.375,0.843 3.093,0.668 5.304,1.344 6.64,2.032 1.344,0.679 2.317,1.523 2.922,2.531 0.613,1.012 0.922,2.141 0.922,3.391 0,1.468 -0.406,2.824 -1.219,4.062 -0.812,1.242 -1.949,2.184 -3.406,2.828 -1.461,0.633 -3.297,0.953 -5.516,0.953 -3.898,0 -6.593,-0.75 -8.093,-2.25 -1.5,-1.5 -2.352,-3.406 -2.547,-5.718 z" /></g><g
       transform="scale(1,0.947842)"
       id="g54"><path
         inkscape:connector-curvature="0"
         id="path56"
         style="fill:none;stroke:#fefefe;stroke-width:0.76089001;stroke-linecap:round;stroke-linejoin:round;stroke-miterlimit:4;stroke-dasharray:none;stroke-opacity:1"
         d="m 55.82,12.158 0.86,-1.171 1.718,2.345 1.719,-2.345 1.715,2.345 1.719,-2.345 1.719,2.345 0.859,-1.174" /></g><g
       transform="scale(1,0.947842)"
       id="g58"><path
         inkscape:connector-curvature="0"
         id="path60"
         style="fill:none;stroke:#fefefe;stroke-width:0.86793298;stroke-linecap:round;stroke-linejoin:round;stroke-miterlimit:4;stroke-dasharray:none;stroke-opacity:1"
         d="m 51.453,12.158 h 4.285" /></g><g
       transform="scale(1,0.947842)"
       id="g62"><path
         inkscape:connector-curvature="0"
         id="path64"
         style="fill:none;stroke:#fefefe;stroke-width:0.886522;stroke-linecap:round;stroke-linejoin:round;stroke-miterlimit:4;stroke-dasharray:none;stroke-opacity:1"
         d="m 66.211,12.158 h 4.137" /></g><g
       id="g66"><path
         inkscape:connector-curvature="0"
         id="path68"
         style="fill:none;stroke:#ffffff;stroke-width:0.84343702;stroke-linecap:butt;stroke-linejoin:round;stroke-miterlimit:4;stroke-dasharray:none;stroke-opacity:1"
         d="M 82.73,12.254 H 73.629" /></g><g
       id="g70"><path
         inkscape:connector-curvature="0"
         id="path72"
         style="fill:none;stroke:#fffefe;stroke-width:0.83697402;stroke-linecap:butt;stroke-linejoin:round;stroke-miterlimit:4;stroke-dasharray:none;stroke-opacity:1"
         d="m 89.063,12.211 h 9.269" /></g><g
       id="g74"><path
         inkscape:connector-curvature="0"
         id="path76"
         style="fill:#ffffff;fill-opacity:1;fill-rule:nonzero;stroke:#fefdfe;stroke-width:0.78771198;stroke-linecap:round;stroke-linejoin:miter;stroke-miterlimit:4;stroke-dasharray:none;stroke-opacity:1"
         d="m 33.125,8.699 h 6.094 v 5.941 h -6.094 z" /></g><g
       transform="scale(0.983075,1)"
       id="g78"><path
         inkscape:connector-curvature="0"
         id="path80"
         style="fill:none;stroke:#000000;stroke-width:0.85039401;stroke-linecap:round;stroke-linejoin:round;stroke-miterlimit:4;stroke-dasharray:none;stroke-opacity:1"
         d="m 36.969,10.098 v 3.031" /></g><g
       transform="scale(0.983075,1)"
       id="g82"><path
         inkscape:connector-curvature="0"
         id="path84"
         style="fill:none;stroke:#000000;stroke-width:0.85039401;stroke-linecap:round;stroke-linejoin:round;stroke-miterlimit:4;stroke-dasharray:none;stroke-opacity:1"
         d="M 38.34,8.789 H 35.253 V 14.48 H 38.34" /></g><g
       transform="scale(0.983075,1)"
       id="g86"><path
         inkscape:connector-curvature="0"
         id="path88"
         style="fill:none;stroke:#000000;stroke-width:0.85039401;stroke-linecap:butt;stroke-linejoin:miter;stroke-miterlimit:4;stroke-dasharray:none;stroke-opacity:1"
         d="M 40.991,11.664 H 37.224" /></g><g
       transform="scale(0.983075,1)"
       id="g90"><path
         inkscape:connector-curvature="0"
         id="path92"
         style="fill:none;stroke:#000000;stroke-width:0.85039401;stroke-linecap:butt;stroke-linejoin:miter;stroke-miterlimit:4;stroke-dasharray:none;stroke-opacity:1"
         d="M 35.217,11.559 H 32.368" /></g><g
       id="g94"><path
         inkscape:connector-curvature="0"
         id="path96"
         style="fill:none;stroke:#000000;stroke-width:0.981417;stroke-linecap:butt;stroke-linejoin:round;stroke-miterlimit:4;stroke-dasharray:none;stroke-opacity:1"
         d="m 89.863,12.281 -3.941,-3.027 -3.942,3.027 3.942,3.028 z" /></g><text
       xml:space="preserve"
       style="font-style:normal;font-weight:normal;font-size:30px;line-height:1.25;font-family:sans-serif;letter-spacing:0px;word-spacing:0px;fill:#000000;fill-opacity:1;stroke:none;stroke-width:0.75"
       x="125.17722"
       y="0.43490541"
       id="text947"><tspan
         sodipodi:role="line"
         id="tspan945"
         x="125.17722"
         y="0.43490541"
         style="font-style:normal;font-variant:normal;font-weight:600;font-stretch:normal;font-size:20px;font-family:Go;-inkscape-font-specification:'Go, Semi-Bold';font-variant-ligatures:normal;font-variant-caps:normal;font-variant-numeric:normal;font-feature-settings:normal;text-align:start;writing-mode:lr-tb;text-anchor:start;stroke-width:0.75">AFM</tspan></text>
</g></svg>